<svg id="Capa_1" enable-background="new 0 0 511.992 511.992" height="512" viewBox="0 0 511.992 511.992" width="512" xmlns="http://www.w3.org/2000/svg"><g><g><path d="m311.194 505.39c97.434-29.761 133.131-142.464 95.439-229.783-29.728-68.865-112.886-188.008-73.408-268.278 2.005-4.077-1.877-8.541-6.16-7.027-34.311 12.128-125.853 55.278-97.455 163.687 0 0-26.304-31.154-49.697-40.962-3.465-1.453-7.222 1.305-6.938 5.052 4.966 65.543-41.652 100.648-68.617 156.003-24.173 49.623-13.823 98.059 10.995 141.247 24.321 42.324 64.685 71.406 110.001 82.112l30.642-3.382 23.826 7.232c9.423-.866 18.87-2.534 28.257-5.045 1.033-.275 2.072-.561 3.115-.856z" fill="#f3d652"/><path d="m406.632 275.607c-29.727-68.865-112.885-188.008-73.407-268.278 2.005-4.077-1.877-8.541-6.16-7.027-16.874 5.964-47.585 19.441-71.069 44.484v459.274l23.826 7.232c9.423-.866 18.87-2.534 28.257-5.045 1.034-.277 2.073-.562 3.116-.858 97.433-29.76 133.13-142.463 95.437-229.782z" fill="#edbe2c"/></g><g><path d="m323.422 385.911c-8.54 15.12-25.348 17.068-25.348 17.068 31.671-92.372-11.113-140.131-33.293-157.643-3.631-2.867-8.831.213-8.099 4.781 8.993 56.121-76.699 112.072-83.058 167.372-4.57 39.746 17.413 75.645 51.731 89.945 18.04 4.262 36.863 5.61 55.772 3.724 51.122-13.639 68.638-73.968 51.42-124.44-1.395-4.086-7.002-4.567-9.125-.807z" fill="#edbe2c"/><path d="m332.546 386.719c-1.394-4.087-7.001-4.567-9.125-.807-8.54 15.12-25.348 17.068-25.348 17.068 31.671-92.372-11.113-140.131-33.293-157.643-3.631-2.867-8.831.213-8.099 4.781 1.113 6.947.772 13.891-.686 20.832v240.83c8.319.414 16.716.219 25.131-.621 51.123-13.639 68.639-73.968 51.42-124.44z" fill="#e69022"/></g></g></svg>