<svg id="Layer_1" enable-background="new 0 0 512 512" height="512" viewBox="0 0 512 512" width="512" xmlns="http://www.w3.org/2000/svg"><g><path d="m113.72 348.665 44.799-44.799c5.858-5.858 15.355-5.858 21.213 0l56.804 56.804c5.858 5.858 5.858 15.355 0 21.213l-44.799 44.799c-5.858 5.858-15.355 5.858-21.213 0l-56.804-56.804c-5.858-5.858-5.858-15.355 0-21.213z" fill="#ffbe43"/><path d="m191.737 426.682 44.799-44.799c5.858-5.858 5.858-15.355 0-21.213l-28.402-28.402-66.012 66.012 28.402 28.402c5.858 5.858 15.356 5.858 21.213 0z" fill="#ff9b21"/><path d="m113.72 348.665-80.925 80.925c-5.858 5.858-5.858 15.355 0 21.213l56.804 56.804c5.857 5.857 15.354 5.858 21.213 0l80.925-80.924z" fill="#ff7800"/><path d="m110.812 507.607 80.925-80.924-39.009-39.009-91.531 91.531 28.402 28.402c5.858 5.857 15.355 5.858 21.213 0z" fill="#e9501e"/><path d="m284.397 395.969c-1.989 0-3.995-.396-5.899-1.211l-48.199-20.633c-1.756-.751-3.353-1.832-4.704-3.183l-67.075-67.076 299.217-299.218c3.635-3.635 8.847-5.4 13.878-4.346 7.116 1.49 11.983 7.696 11.983 14.698v.005c0 129.824-54.734 242.716-132.924 320.905l-55.667 55.666c-2.871 2.871-6.708 4.393-10.61 4.393z" fill="#f4f1f1"/><path d="m481.483 58.919-283.955 283.956 28.067 28.067c1.351 1.351 2.948 2.432 4.704 3.183l48.199 20.633c1.904.815 3.91 1.211 5.899 1.211 3.901 0 7.739-1.522 10.61-4.394l55.667-55.666c69.234-69.232 120.07-165.677 130.809-276.99z" fill="#e4e4e7"/></g></svg>