<?xml version="1.0" encoding="iso-8859-1"?>
<!-- Generator: Adobe Illustrator 19.0.0, SVG Export Plug-In . SVG Version: 6.00 Build 0)  -->
<svg version="1.1" id="Capa_1" xmlns="http://www.w3.org/2000/svg" xmlns:xlink="http://www.w3.org/1999/xlink" x="0px" y="0px"
	 viewBox="0 0 511.998 511.998" style="enable-background:new 0 0 511.998 511.998;" xml:space="preserve">
<path style="fill:#AEADB3;" d="M182.886,231.725c-58.704,0-104.8-16.465-137.056-48.97c-15.512-15.659-27.461-34.411-35.496-55.743
	c-6.568-18.62-13.4-44.424-8.87-81.679C2.3,38.487,7.71,33.077,14.557,32.241c37.284-4.472,63.044,2.302,81.371,8.753
	c21.64,8.152,40.392,20.101,56.051,35.598c33.105,32.871,49.57,80.051,48.955,140.252c-0.088,8.181-6.686,14.779-14.867,14.867
	C185.012,231.725,183.942,231.725,182.886,231.725z"/>
<path style="fill:#8B8892;" d="M329.114,231.718c-1.07,0-2.126,0-3.182-0.015c-8.181-0.088-14.779-6.686-14.867-14.867
	c-0.616-60.2,15.849-107.381,48.955-140.237c15.659-15.512,34.411-27.461,55.743-35.496c18.621-6.569,44.425-13.327,81.679-8.87
	c6.847,0.836,12.257,6.246,13.093,13.093c4.53,37.284-2.316,63.074-8.768,81.385c-8.137,21.611-20.072,40.363-35.584,56.036
	C433.915,215.253,387.805,231.718,329.114,231.718z"/>
<path style="fill:#787780;" d="M30.231,61.007c-1.261,24.382,3.387,41.741,8.313,55.729c6.422,17.036,16.098,32.241,28.619,44.879
	c24.587,24.793,58.558,37.886,103.51,39.835c-1.95-44.952-15.042-78.908-39.835-103.525c-12.638-12.506-27.842-22.183-45.186-28.722
	C71.942,64.379,54.613,59.746,30.231,61.007z"/>
<path style="fill:#57555C;" d="M473.808,60.795c-20.277,0-35.348,4.15-47.768,8.519c-17.036,6.422-32.241,16.098-44.879,28.619
	c-24.793,24.602-37.886,58.558-39.835,103.51c44.967-1.95,78.923-15.042,103.525-39.835c12.521-12.638,22.168-27.842,28.708-45.186
	c4.838-13.708,9.471-31.024,8.21-55.42C479.028,60.853,476.375,60.795,473.808,60.795z"/>
<path style="fill:#AEADB3;" d="M510.927,346.979c0,0-0.3,0-0.3,0.3l-119.205-24.923l-9.308,66.961
	c-22.82,12.911-46.541,32.428-68.462,61.855c-13.811,18.617-34.83,29.125-57.65,29.125s-43.84-10.508-57.65-29.125
	c-19.217-25.823-42.639-45.04-69.662-59.454l-30.327-72.063L1.075,346.978c-3.903-77.169,23.122-152.835,74.767-207.184
	c48.042-51.045,111.999-78.97,180.16-78.97s132.119,27.925,180.16,78.97C487.806,194.144,514.831,269.811,510.927,346.979z"/>
<path style="fill:#8B8892;" d="M510.927,346.979c0,0-0.3,0-0.3,0.3l-119.205-24.923l-9.308,66.961
	c-22.82,12.911-46.541,32.428-68.462,61.855c-13.811,18.617-34.83,29.125-57.65,29.125V60.826c68.162,0,132.119,27.925,180.16,78.97
	C487.806,194.144,514.831,269.811,510.927,346.979z"/>
<g>
	<path style="fill:#57555C;" d="M271.014,421.147v45.04c0,8.409-6.605,15.013-15.013,15.013c-8.409,0-15.013-6.605-15.013-15.013
		v-45.04c0-8.409,6.605-15.013,15.013-15.013C264.409,406.133,271.014,412.738,271.014,421.147z"/>
	<path style="fill:#57555C;" d="M256,338.573c-24.923,0-45.04,20.117-45.04,45.04c0,3.303,1.2,6.605,3.303,9.308l30.027,37.533
		c2.703,3.603,7.206,5.705,11.71,5.705c4.504,0,9.008-2.102,11.71-5.705l30.027-37.533c2.102-2.703,3.303-6.005,3.303-9.308
		C301.04,358.69,280.923,338.573,256,338.573z"/>
</g>
<g>
	<path style="fill:#3C3A41;" d="M271.014,421.147v45.04c0,8.409-6.605,15.013-15.013,15.013v-75.067
		C264.409,406.133,271.014,412.738,271.014,421.147z"/>
	<path style="fill:#3C3A41;" d="M301.04,383.613c0,3.303-1.2,6.605-3.303,9.308l-30.027,37.533
		c-2.703,3.603-7.206,5.705-11.71,5.705v-97.587C280.923,338.573,301.04,358.69,301.04,383.613z"/>
</g>
<path style="fill:#787780;" d="M188.543,199.655c-22.256-10.483-47.02-9.486-68,2.727c-56.052,32.59-98.124,84.508-119.338,144.564
	c0.359,6.354,4.675,11.803,10.784,13.589c0.851,0.249,3.387,0.689,7.434,1.026c2.847,0.238,5.535,0.717,8.342,1.015
	c26.225,2.783,50.796,8.126,73.315,16.553c9.567,3.579,18.683,7.835,27.504,12.524c11.96-34.11,37.264-62.74,70.868-78.241
	c22.945-10.6,35.686-33.707,31.698-57.649C227.059,231.25,211.136,210.27,188.543,199.655z"/>
<g>
	<path style="fill:#57555C;" d="M391.458,202.382c-20.966-12.199-45.744-13.196-67.986-2.741
		c-22.608,10.614-38.53,31.595-42.636,56.241c-3.974,23.795,8.797,46.932,31.786,57.561c30.212,13.952,56.37,41.208,69.455,75.879
		c9.28-5.275,18.403-9.506,27.243-12.849c31.282-11.829,58.644-13.144,74.829-14.154c1.129-0.07,2.338-0.143,3.356-0.214
		c5.894-0.425,9.442-0.675,12.521-1.568c6.007-1.773,10.184-7.087,10.665-13.309C489.631,286.75,448.009,235.264,391.458,202.382z"
		/>
	<circle style="fill:#57555C;" cx="165.918" cy="255.997" r="15.013"/>
</g>
<circle style="fill:#3C3A41;" cx="346.078" cy="255.997" r="15.013"/>
<g>
</g>
<g>
</g>
<g>
</g>
<g>
</g>
<g>
</g>
<g>
</g>
<g>
</g>
<g>
</g>
<g>
</g>
<g>
</g>
<g>
</g>
<g>
</g>
<g>
</g>
<g>
</g>
<g>
</g>
</svg>
