<?xml version="1.0" encoding="iso-8859-1"?>
<!-- Generator: Adobe Illustrator 19.0.0, SVG Export Plug-In . SVG Version: 6.00 Build 0)  -->
<svg version="1.1" id="Capa_1" xmlns="http://www.w3.org/2000/svg" xmlns:xlink="http://www.w3.org/1999/xlink" x="0px" y="0px"
	 viewBox="0 0 512 512" style="enable-background:new 0 0 512 512;" xml:space="preserve">
<path style="fill:#8B8892;" d="M116.455,150.976H105c-57.891,0-105-47.109-105-105V0.024l184.321,56.953L116.455,150.976z"/>
<path style="fill:#787780;" d="M407,150.976h-11.455l-67.866-93.999L512,0.024v45.952C512,103.867,464.891,150.976,407,150.976z"/>
<path style="fill:#AEADB3;" d="M444.401,384.675L430.6,282.376c-6.301-38.401-9.6-77.401-9.6-116.4c0-74.401-60.601-135-135-135h-60
	c-74.399,0-135,60.599-135,135v0.3c0,38.699-3.3,77.699-9.6,116.4L67.599,384.675c-4.799,35.7,16.501,69.901,50.7,81.301l39.6,13.2
	c21.601,20.099,50.7,32.8,80.4,32.8h35.402c29.7,0,58.799-12.7,80.4-32.8l39.6-13.2C427.899,454.576,449.2,420.375,444.401,384.675z
	"/>
<path style="fill:#8B8892;" d="M393.701,465.976l-39.6,13.2c-21.601,20.099-50.7,32.8-80.4,32.8H256v-481h30
	c74.399,0,135,60.599,135,135c0,39,3.3,77.999,9.6,116.4l13.801,102.299C449.2,420.375,427.899,454.576,393.701,465.976z"/>
<rect x="121" y="270.98" style="fill:#3C3A41;" width="30" height="30"/>
<rect x="361" y="270.98" style="fill:#2B292C;" width="30" height="30"/>
<path style="fill:#3C3A41;" d="M241,435.976h-30c0-8.276-6.724-15-15-15v-30C220.814,390.976,241,411.162,241,435.976z"/>
<path style="fill:#2B292C;" d="M301,435.976h-30c0-24.814,20.186-45,45-45v30C307.724,420.976,301,427.7,301,435.976z"/>
<path style="fill:#8B8892;" d="M256,95.475l-76.5,191.1l37.2,74.401h78.6l37.2-74.401L256,95.475z"/>
<polygon style="fill:#787780;" points="332.5,286.575 295.3,360.976 256,360.976 256,95.475 "/>
<g>
</g>
<g>
</g>
<g>
</g>
<g>
</g>
<g>
</g>
<g>
</g>
<g>
</g>
<g>
</g>
<g>
</g>
<g>
</g>
<g>
</g>
<g>
</g>
<g>
</g>
<g>
</g>
<g>
</g>
</svg>
