<?xml version="1.0" encoding="UTF-8"?>
<svg version="1.0" viewBox="0 0 115 115" xmlns="http://www.w3.org/2000/svg" xmlns:xlink="http://www.w3.org/1999/xlink">
<g transform="translate(-129.5,-9.5)">
<g id="e" transform="translate(129.25,9.5)">
  <path id="b" d="m40 10v90" stroke="#000" stroke-width="1px"/>
  <use transform="translate(30)" xlink:href="#b"/>
  <use id="c" transform="matrix(0,1,-1,0,110.5,0)" xlink:href="#b"/>
  <use transform="translate(0,30)" xlink:href="#c"/>
</g>
<g id="d" transform="translate(9.25,9.5)">
<path id="a" d="m157 35a2 2 0 1 1-4 0 2 2 0 1 1 4 0z"/>
<use transform="translate(20)" xlink:href="#a"/>
<use transform="translate(40)" xlink:href="#a"/>
</g>
<use transform="translate(9.25,29.5)" xlink:href="#a"/>
<use transform="translate(0,40)" xlink:href="#d"/>
<use transform="translate(49.25,29.5)" xlink:href="#a"/>
<use transform="translate(29.25,39.5)" xlink:href="#a"/>
<text x="149.76367" y="37.288086" fill="#000000" font-family="Bitstream Vera Sans" font-size="20px" font-weight="bold">J</text>
<text x="175.53027" y="39.290039" fill="#000000" font-family="Bitstream Vera Sans" font-size="20px" font-weight="bold">K</text>
<text x="209.9834" y="39.290039" fill="#000000" font-family="Bitstream Vera Sans" font-size="20px" font-weight="bold">L</text>
<text x="142.05371" y="71.790039" fill="#000000" font-family="Bitstream Vera Sans" font-size="20px" font-weight="bold">M</text>
<text x="176.13086" y="71.790039" fill="#000000" font-family="Bitstream Vera Sans" font-size="20px" font-weight="bold">N</text>
<text x="208.50391" y="71.780273" fill="#000000" font-family="Bitstream Vera Sans" font-size="20px" font-weight="bold">O</text>
<text x="144.16309" y="104.29004" fill="#000000" font-family="Bitstream Vera Sans" font-size="20px" font-weight="bold">P</text>
<text x="176.00391" y="102.96191" fill="#000000" font-family="Bitstream Vera Sans" font-size="20px" font-weight="bold">Q</text>
<text x="208.58203" y="104.29004" fill="#000000" font-family="Bitstream Vera Sans" font-size="20px" font-weight="bold">R</text>
</g>
</svg>
